<?xml version="1.0" encoding="UTF-8" standalone="no"?>
<svg
   xmlns:dc="http://purl.org/dc/elements/1.1/"
   xmlns:cc="http://creativecommons.org/ns#"
   xmlns:rdf="http://www.w3.org/1999/02/22-rdf-syntax-ns#"
   xmlns:svg="http://www.w3.org/2000/svg"
   xmlns="http://www.w3.org/2000/svg"
   xmlns:sodipodi="http://sodipodi.sourceforge.net/DTD/sodipodi-0.dtd"
   xmlns:inkscape="http://www.inkscape.org/namespaces/inkscape"
   width="300"
   height="100"
   viewBox="0 0 79.374998 26.458334"
   version="1.1"
   id="svg8"
   inkscape:version="1.0.1 (3bc2e813f5, 2020-09-07)"
   sodipodi:docname="logo.svg">
  <defs
     id="defs2" />
  <sodipodi:namedview
     id="base"
     pagecolor="#ffffff"
     bordercolor="#666666"
     borderopacity="1.0"
     inkscape:pageopacity="0.0"
     inkscape:pageshadow="2"
     inkscape:zoom="0.98994949"
     inkscape:cx="216.36872"
     inkscape:cy="253.10377"
     inkscape:document-units="mm"
     inkscape:current-layer="layer1"
     inkscape:document-rotation="0"
     showgrid="false"
     inkscape:window-width="1807"
     inkscape:window-height="1198"
     inkscape:window-x="2301"
     inkscape:window-y="1016"
     inkscape:window-maximized="0"
     units="px" />
  <metadata
     id="metadata5">
    <rdf:RDF>
      <cc:Work
         rdf:about="">
        <dc:format>image/svg+xml</dc:format>
        <dc:type
           rdf:resource="http://purl.org/dc/dcmitype/StillImage" />
        <dc:title></dc:title>
      </cc:Work>
    </rdf:RDF>
  </metadata>
  <g
     inkscape:label="Layer 1"
     inkscape:groupmode="layer"
     id="layer1">
    <rect
       style="opacity:0.998;fill:#ae0000;fill-opacity:1;stroke-width:5.34137;stroke-linecap:round;stroke-linejoin:round"
       id="rect866"
       width="79.375"
       height="26.458334"
       x="0"
       y="0" />
    <g
       aria-label="xxR"
       transform="matrix(2.2657895,0,0,3.0896225,3.8049319,2.3411744)"
       id="text1156">
      <path
         d="M 0,0.22995162 V 6.5674216 C 0,6.7145907 0.12877297,6.7973733 0.22995174,6.7973733 H 3.6148413 c 0.1379711,0 0.2299518,-0.128773 0.2299518,-0.2299517 V 5.8591702 c 0,-0.137971 -0.1379711,-0.2299517 -0.2299518,-0.2299517 H 1.1681548 V 3.982764 h 2.3087155 c 0.137971,0 0.2299517,-0.128773 0.2299517,-0.2299517 V 3.0445609 c 0,-0.137971 -0.137971,-0.2299517 -0.2299517,-0.2299517 H 1.1681548 V 1.1681547 h 2.4466865 c 0.1379711,0 0.2299518,-0.128773 0.2299518,-0.22995172 V 0.22995162 C 3.8447931,0.09198058 3.706822,-1.1920929e-7 3.6148413,-1.1920929e-7 H 0.22995174 C 0.08278263,-1.1920929e-7 0,0.13797092 0,0.22995162 Z"
         id="path2855" />
      <path
         d="M 4.3966656,0.22995162 V 6.5674216 c 0,0.1471691 0.1287729,0.2299517 0.2299517,0.2299517 h 0.7082514 c 0.137971,0 0.2299517,-0.128773 0.2299517,-0.2299517 V 3.982764 h 0.8186282 c 0.5702803,0 1.0669761,-0.1747633 1.4348989,-0.5426861 C 8.1954683,3.0721551 8.3702316,2.5754594 8.3702316,1.995981 8.3702316,1.4165026 8.1954683,0.91980684 7.8183475,0.55188406 7.4504247,0.18396127 6.9537289,-1.1920929e-7 6.3834486,-1.1920929e-7 H 4.6266173 C 4.4794482,-1.1920929e-7 4.3966656,0.13797092 4.3966656,0.22995162 Z m 1.1681548,0.93820308 0.8186282,0.0092 c 0.5702803,0 0.8278263,0.1931594 0.8278263,0.8278262 0,0.6070726 -0.2391498,0.8094302 -0.8278263,0.8094302 H 5.5648204 Z"
         id="path2857" />
      <path
         d="M 10.908887,-1.1920929e-7 C 10.338607,-1.1920929e-7 9.8419108,0.19315934 9.4831861,0.57028019 9.1152633,0.93820298 8.931302,1.4257007 8.9221039,1.9867829 v 2.8238074 c 0,0.5794784 0.1747633,1.0761741 0.5426861,1.4440969 0.3679228,0.3679228 0.864619,0.5426861 1.444097,0.5426861 0.57028,0 1.066976,-0.1747633 1.434899,-0.5426861 C 12.720907,5.8867644 12.89567,5.3900687 12.89567,4.8105903 V 1.9867829 c 0,-0.5702803 -0.174763,-1.06697606 -0.551884,-1.43489884 C 11.975863,0.18396127 11.479167,-1.1920929e-7 10.908887,-1.1920929e-7 Z m 0,1.16815481920929 c 0.607073,0 0.827826,0.2391498 0.827826,0.8186282 v 2.8238074 c 0,0.5702803 -0.193159,0.8186282 -0.827826,0.8186282 -0.643865,0 -0.818628,-0.2391498 -0.818628,-0.8186282 V 1.9867829 c 0,-0.5702803 0.174763,-0.8186282 0.818628,-0.8186282 z"
         id="path2859" />
      <path
         d="m 16.326537,3.7988026 c 0.643865,-0.2759421 1.103768,-0.929005 1.103768,-1.8028216 0,-0.5794784 -0.183961,-1.07617416 -0.561082,-1.44409694 C 16.5013,0.18396127 16.004605,-1.1920929e-7 15.434324,-1.1920929e-7 h -1.756831 c -0.137971,0 -0.229952,0.11957490920929 -0.229952,0.22995173920929 0,2.11555598 0,4.23111198 0,6.33746998 0,0.1471691 0.128773,0.2299517 0.229952,0.2299517 h 0.708251 c 0.137971,0 0.229952,-0.128773 0.229952,-0.2299517 V 3.982764 h 0.597875 l 1.057778,2.6766383 c 0.03679,0.082783 0.128773,0.137971 0.220753,0.137971 h 0.708252 c 0.119575,0 0.229951,-0.1011788 0.229951,-0.2299517 0,-0.027594 -0.0092,-0.055188 -0.0184,-0.082783 z M 14.615696,1.1681547 h 0.818628 c 0.570281,0.0092 0.827827,0.2023575 0.827827,0.8278263 0,0.533488 -0.23915,0.8186282 -0.809431,0.8186282 h -0.837024 z"
         id="path2861" />
      <path
         d="M 17.982172,0.22995162 V 6.5674216 c 0,0.1471691 0.128773,0.2299517 0.229952,0.2299517 h 0.708251 c 0.137971,0 0.229952,-0.128773 0.229952,-0.2299517 V 2.9065899 l 1.66485,3.7620104 c 0.03679,0.082783 0.128773,0.128773 0.211556,0.128773 h 0.708251 c 0.137971,0 0.229952,-0.128773 0.229952,-0.2299517 V 0.22995162 C 21.964936,0.09198058 21.826965,-1.1920929e-7 21.734984,-1.1920929e-7 H 21.026733 C 20.879564,-1.1920929e-7 20.796781,0.13797092 20.796781,0.22995162 V 3.8999814 L 19.122733,0.13797092 C 19.08594,0.0551883 18.99396,-1.1920929e-7 18.920375,-1.1920929e-7 h -0.708251 c -0.147169,0 -0.229952,0.13797103920929 -0.229952,0.22995173920929 z"
         id="path2863" />
      <path
         d="M 22.516804,0.22995162 V 6.5674216 c 0,0.1471691 0.128773,0.2299517 0.229951,0.2299517 h 3.38489 c 0.137971,0 0.229952,-0.128773 0.229952,-0.2299517 V 5.8591702 c 0,-0.137971 -0.137971,-0.2299517 -0.229952,-0.2299517 H 23.684959 V 3.982764 h 2.308715 c 0.137971,0 0.229952,-0.128773 0.229952,-0.2299517 V 3.0445609 c 0,-0.137971 -0.137971,-0.2299517 -0.229952,-0.2299517 H 23.684959 V 1.1681547 h 2.446686 c 0.137971,0 0.229952,-0.128773 0.229952,-0.22995172 V 0.22995162 C 26.361597,0.09198058 26.223626,-1.1920929e-7 26.131645,-1.1920929e-7 h -3.38489 c -0.147169,0 -0.229951,0.13797103920929 -0.229951,0.22995173920929 z"
         id="path2865" />
      <path
         d="m 29.792465,3.7988026 c 0.643865,-0.2759421 1.103768,-0.929005 1.103768,-1.8028216 0,-0.5794784 -0.183961,-1.07617416 -0.561082,-1.44409694 C 29.967228,0.18396127 29.470533,-1.1920929e-7 28.900252,-1.1920929e-7 h -1.756831 c -0.137971,0 -0.229952,0.11957490920929 -0.229952,0.22995173920929 0,2.11555598 0,4.23111198 0,6.33746998 0,0.1471691 0.128773,0.2299517 0.229952,0.2299517 h 0.708251 c 0.137971,0 0.229952,-0.128773 0.229952,-0.2299517 V 3.982764 h 0.597875 l 1.057778,2.6766383 c 0.03679,0.082783 0.128773,0.137971 0.220753,0.137971 h 0.708252 c 0.119575,0 0.229951,-0.1011788 0.229951,-0.2299517 0,-0.027594 -0.0092,-0.055188 -0.0184,-0.082783 z M 28.081624,1.1681547 h 0.818628 c 0.570281,0.0092 0.827827,0.2023575 0.827827,0.8278263 0,0.533488 -0.23915,0.8186282 -0.809431,0.8186282 h -0.837024 z"
         id="path2867" />
    </g>
  </g>
</svg>
