<?xml version="1.0" standalone="no"?>
<!DOCTYPE svg PUBLIC "-//W3C//DTD SVG 20010904//EN"
 "http://www.w3.org/TR/2001/REC-SVG-20010904/DTD/svg10.dtd">
<svg version="1.0" xmlns="http://www.w3.org/2000/svg"
 width="800.000000pt" height="800.000000pt" viewBox="0 0 800.000000 800.000000"
 preserveAspectRatio="xMidYMid meet">
<metadata>
Created by potrace 1.14, written by Peter Selinger 2001-2017
</metadata>
<g transform="translate(0.000000,800.000000) scale(0.100000,-0.100000)"
fill="#000000" stroke="none">
<path d="M0 4000 l0 -4000 4000 0 4000 0 0 4000 0 4000 -4000 0 -4000 0 0
-4000z m7025 2965 c143 -37 294 -132 420 -267 121 -128 165 -226 165 -367 0
-92 -13 -149 -80 -350 -72 -219 -141 -325 -278 -428 -42 -32 -103 -72 -135
-88 l-58 -30 6 -55 c4 -30 25 -127 47 -215 37 -149 41 -172 45 -335 8 -266
-22 -462 -124 -814 -96 -332 -113 -398 -138 -531 -72 -389 -84 -587 -46 -780
63 -317 63 -317 57 -527 -6 -169 -4 -202 9 -228 31 -59 89 -113 160 -147 66
-31 75 -33 171 -31 83 1 108 -2 129 -16 15 -10 57 -21 94 -24 57 -6 66 -10 66
-27 0 -17 -9 -21 -55 -27 -30 -3 -81 -16 -112 -27 -32 -12 -63 -21 -69 -21 -6
0 -20 -11 -30 -24 -22 -28 -58 -37 -107 -25 -20 5 -116 9 -212 10 -215 0 -237
8 -264 91 -3 9 0 32 5 50 32 107 29 143 -45 583 -71 421 -86 599 -86 1018 l0
329 -62 -57 c-38 -34 -97 -73 -147 -97 l-84 -41 -37 -81 c-128 -277 -152 -473
-109 -883 33 -317 17 -490 -62 -651 -72 -147 -197 -246 -351 -278 -81 -17
-148 -12 -248 18 -132 41 -240 107 -455 279 -163 131 -237 180 -377 250 -92
46 -289 119 -323 119 -7 0 -22 -26 -33 -58 -11 -31 -32 -84 -46 -117 -23 -54
-26 -74 -26 -186 0 -69 -7 -195 -16 -280 -9 -85 -17 -239 -18 -344 l-1 -190
-108 -3 -109 -3 9 138 c20 341 -9 533 -81 533 -36 0 -96 -74 -158 -193 l-52
-102 -6 -145 c-6 -167 -18 -197 -85 -230 -47 -23 -248 -40 -471 -40 -122 0
-143 2 -157 18 -15 16 -30 99 -42 232 -3 36 -13 112 -22 169 -19 127 -8 198
37 243 27 27 33 28 112 27 105 -2 122 6 201 101 34 41 115 118 178 171 129
108 163 146 207 234 34 66 78 208 88 283 l6 48 -83 64 c-113 86 -193 164 -306
294 -112 130 -161 171 -227 191 -73 22 -113 10 -258 -77 -58 -35 -154 -80
-240 -112 -216 -80 -460 -207 -670 -347 l-86 -58 8 -35 c12 -53 -3 -108 -48
-183 -92 -152 -110 -230 -119 -523 -3 -116 -9 -213 -13 -215 -4 -2 -25 -7 -46
-11 -30 -4 -45 -1 -62 13 -23 18 -23 19 -21 238 5 329 5 334 -12 351 -18 18
-54 7 -82 -24 -35 -39 -46 -92 -47 -227 -1 -190 -14 -319 -37 -357 -25 -43
-83 -74 -163 -87 -150 -25 -617 -6 -742 29 -58 17 -63 44 -63 330 0 267 4 289
60 326 29 19 107 21 151 3 53 -19 144 -15 194 11 61 31 152 126 229 240 124
180 204 240 460 341 194 76 268 120 490 288 233 176 376 270 676 442 269 153
392 215 495 247 88 27 186 37 235 23 23 -6 97 -53 170 -107 130 -96 171 -122
180 -112 3 2 10 115 15 249 10 240 26 414 55 595 11 69 12 111 5 175 -28 241
80 562 218 650 36 22 58 29 98 29 100 0 165 -77 354 -420 136 -247 164 -288
321 -476 187 -225 258 -327 339 -489 76 -153 121 -277 175 -491 20 -76 37
-140 39 -142 6 -5 83 160 104 223 13 37 24 112 31 195 17 224 71 394 174 554
32 48 57 88 57 90 0 2 -10 6 -23 10 -35 8 -96 73 -118 123 -47 111 -50 261 -5
358 14 32 26 67 26 80 0 26 42 75 64 75 8 0 38 15 67 32 l52 33 191 0 c171 1
197 3 249 22 86 32 180 88 238 141 l51 47 -90 -3 c-88 -4 -157 5 -217 28 l-29
11 42 19 c61 28 263 234 302 309 10 19 10 25 -1 32 -23 15 -91 10 -157 -11
-80 -25 -113 -25 -143 -1 -22 18 -23 21 -11 65 17 63 15 76 -8 76 -12 0 -25
10 -32 24 -9 20 -7 31 9 58 15 25 17 38 9 50 -7 12 -7 27 2 51 18 51 16 57
-27 57 -38 0 -71 19 -71 42 0 5 16 38 35 72 19 35 35 70 35 78 0 9 -12 37 -27
64 -25 44 -28 59 -28 145 0 91 2 99 33 148 17 29 32 63 32 75 0 77 127 230
253 305 165 97 444 147 602 106z"/>
</g>
</svg>
