<?xml version="1.0" encoding="utf-8"?>
<!-- Generator: Adobe Illustrator 17.1.0, SVG Export Plug-In . SVG Version: 6.00 Build 0)  -->
<!DOCTYPE svg PUBLIC "-//W3C//DTD SVG 1.1//EN" "http://www.w3.org/Graphics/SVG/1.1/DTD/svg11.dtd">
<svg version="1.1" id="Layer_1" xmlns="http://www.w3.org/2000/svg" xmlns:xlink="http://www.w3.org/1999/xlink" x="0px" y="0px"
	 viewBox="13 18.1 180.6 43.9" enable-background="new 13 18.1 180.6 43.9" xml:space="preserve">
<g id="Shape_1_1_" enable-background="new    ">
	<g id="Shape_1">
		<g>
			<path fill="#E21725" d="M42.6,18.1c-4.3,1.7-5.9,9.1-3.7,12.9l5.4-4.3C41.7,24.1,41.7,21.5,42.6,18.1z M57,18.1
				c0.7,3.5,0.9,6-2,8.6l5.6,4.3C62.9,26.9,61.1,19.8,57,18.1z"/>
		</g>
	</g>
</g>
<g id="porntrex_1_" enable-background="new    ">
	<g id="porntrex">
		<g>
			<path fill="#202020" d="M31.9,25.8c-1.4-0.6-3.1-0.9-5-0.9h-9.7v21h6v-5.5h3.7c1.9,0,3.6-0.3,5-0.9c1.4-0.6,2.5-1.5,3.3-2.7
				c0.8-1.2,1.1-2.5,1.1-4.1s-0.4-3-1.1-4.1C34.4,27.3,33.3,26.4,31.9,25.8z M29.4,34.9c-0.6,0.5-1.6,0.8-2.8,0.8h-3.3v-6.1h3.3
				c1.2,0,2.2,0.3,2.8,0.8c0.6,0.5,0.9,1.3,0.9,2.3C30.3,33.6,30,34.4,29.4,34.9z M82.8,36.6c0.7-1.1,1.1-2.5,1.1-4
				c0-1.6-0.4-3-1.1-4.1c-0.8-1.2-1.9-2.1-3.3-2.7s-3.1-0.9-5-0.9h-9.7v21h6v-5.6h3.3l3.8,5.6h6.4l-4.6-6.6
				C81.1,38.6,82.1,37.7,82.8,36.6z M76.9,34.9c-0.6,0.5-1.6,0.8-2.8,0.8h-3.3v-6.1h3.3c1.2,0,2.2,0.3,2.8,0.8s0.9,1.3,0.9,2.3
				C77.9,33.6,77.6,34.4,76.9,34.9z M101.5,36.1l-9.3-11.2h-4.9v21h5.9V34.7l9.3,11.2h4.9v-21h-5.9L101.5,36.1L101.5,36.1z
				 M109.4,29.6h6.5v16.3h6V29.6h6.5v-4.7h-18.9V29.6z M148.3,36.6c0.7-1.1,1.1-2.5,1.1-4c0-1.6-0.4-3-1.1-4.1s-1.9-2.1-3.3-2.7
				c-1.4-0.6-3.1-0.9-5-0.9h-9.7v21h6v-5.6h3.3l3.8,5.6h6.4l-4.6-6.6C146.6,38.6,147.6,37.7,148.3,36.6z M142.4,34.9
				c-0.6,0.5-1.6,0.8-2.8,0.8h-3.3v-6.1h3.3c1.2,0,2.2,0.3,2.8,0.8c0.6,0.5,0.9,1.3,0.9,2.3C143.4,33.6,143,34.4,142.4,34.9z
				 M158.6,41.3v-3.8h9.4V33h-9.4v-3.5h10.7v-4.6h-16.6v21h17v-4.6H158.6z"/>
		</g>
	</g>
</g>
<g id="porntrex_copy_2_1_" enable-background="new    ">
	<g id="porntrex_copy_2">
		<g>
			<polygon fill="#E21725" points="185.7,35 193.1,24.9 186.6,24.9 182.5,30.9 178.2,24.9 171.5,24.9 178.9,35.2 171.2,45.9 
				178,45.9 182.3,39.4 186.7,45.9 193.6,45.9 			"/>
		</g>
	</g>
</g>
<g id="porntrex_copy_1_" enable-background="new    ">
	<g id="porntrex_copy">
		<g>
			<path fill="#E21725" d="M60.2,29.8c-1-1.7-2.4-3-4.2-3.9c-1.8-0.9-3.8-1.4-6-1.4c-2.2,0-4.2,0.5-6,1.4c-1.8,0.9-3.2,2.2-4.2,3.9
				s-1.5,3.5-1.5,5.6s0.5,4,1.5,5.6s2.4,3,4.2,3.9c1.8,0.9,3.8,1.4,6,1.4s4.2-0.5,6-1.4c1.8-0.9,3.2-2.2,4.2-3.9s1.5-3.5,1.5-5.6
				S61.3,31.4,60.2,29.8z M55,38.5c-0.5,0.9-1.2,1.6-2.1,2.1s-1.8,0.8-2.9,0.8c-1.1,0-2-0.3-2.9-0.8c-0.9-0.5-1.6-1.2-2.1-2.1
				c-0.5-0.9-0.8-2-0.8-3.1c0-1.2,0.3-2.2,0.8-3.1c0.5-0.9,1.2-1.6,2.1-2.1s1.8-0.8,2.9-0.8s2,0.3,2.9,0.8s1.6,1.2,2.1,2.1
				c0.5,0.9,0.8,2,0.8,3.1C55.7,36.5,55.5,37.6,55,38.5z"/>
		</g>
	</g>
</g>
<g id="Shape_1_copy_1_" enable-background="new    ">
	<g id="Shape_1_copy">
		<g>
			<path fill="#E21725" d="M58.1,35.4c7.4-6.4-9.2,7.2-6,4.9c9.8-2.9,13.1,5.2,4.8,9.2c-4.8,2.6-11.9,2.6-26.2-3.8
				c-4.8-2.3-10.4-2.6-14-1.2c-4.2,1.7-4.8,6.4-2.4,9.8c6.2,8.7,18.2,6.9,26.8,4.3c0.3,1.4-0.3,1.7-0.3,3.2c2.7-2,4.2-4.6,5.1-6.9
				c0,0.3-6.5,0.9-8.3,0.9c0,0,2.4,0.6,3,1.4C16.2,64.9,11.4,46.1,23,47c11,0.6,23.2,12.4,38.1,4.6C69.7,46.7,67.1,36.3,58.1,35.4z"
				/>
		</g>
	</g>
</g>
<g id="Ellipse_1_1_" enable-background="new    ">
	<g id="Ellipse_1">
		<g>
			<ellipse fill="#E21725" cx="49.8" cy="34.7" rx="9.5" ry="9.4"/>
		</g>
	</g>
</g>
<g id="Ellipse_1_copy_1_" enable-background="new    ">
	<g id="Ellipse_1_copy">
		<g>
			<ellipse fill="#FFFFFF" cx="45" cy="32.4" rx="2.4" ry="2.3"/>
		</g>
	</g>
</g>
<g id="Ellipse_1_copy_2_1_" enable-background="new    ">
	<g id="Ellipse_1_copy_2">
		<g>
			<ellipse fill="#FFFFFF" cx="53.3" cy="32.4" rx="2.4" ry="2.3"/>
		</g>
	</g>
</g>
</svg>
